<svg
   version="1.1"
   id="svg2"
   width="36"
   viewBox="0 0 36 36"
   height="36"
   fill="#000000">
  <defs
     id="defs10" />
  <path
     style="fill:none"
     id="path4"
     d="m 0,-12 36,0 0,36 -36,0 z" />
  <circle
     r="16.398813"
     cy="18"
     cx="18"
     id="path4138"
     style="fill:#000000;fill-opacity:0.1254902;stroke:#aa0000;stroke-width:1.20237446;stroke-miterlimit:4;stroke-dasharray:none;stroke-opacity:1" />
  <path
     style="fill:#aa0000"
     id="path6"
     d="m 18,15.57 c -1.6,0 -3.15,0.25 -4.6,0.72 l 0,3.1 c 0,0.39 -0.23,0.74 -0.56,0.9 -0.98,0.49 -1.87,1.12 -2.66,1.85 -0.18,0.18 -0.43,0.28 -0.7,0.28 -0.28,0 -0.53,-0.11 -0.71,-0.29 L 6.29,19.65 C 6.11,19.48 6,19.23 6,18.95 6,18.67 6.11,18.42 6.29,18.24 9.34,15.35 13.46,13.57 18,13.57 c 4.54,0 8.66,1.78 11.71,4.67 0.18,0.18 0.29,0.43 0.29,0.71 0,0.28 -0.11,0.53 -0.29,0.71 l -2.48,2.48 c -0.18,0.18 -0.43,0.29 -0.71,0.29 -0.27,0 -0.52,-0.11 -0.7,-0.28 -0.79,-0.74 -1.69,-1.36 -2.67,-1.85 -0.33,-0.16 -0.56,-0.5 -0.56,-0.9 l 0,-3.1 C 21.15,15.82 19.6,15.57 18,15.57 Z" />
</svg>
