<svg
   fill="#000000"
   height="60"
   viewBox="0 0 60 60"
   width="60"
   id="svg2"
   version="1.1">
  <defs
     id="defs10" />
  <path
     d="m 0,-24 48,0 0,48 -48,0 z"
     id="path4"
     style="fill:none" />
  <ellipse
     ry="29.499731"
     rx="29.499733"
     style="fill:#c0c0c0;fill-opacity:0.75294118;stroke:#c00000;stroke-width:2.001;stroke-miterlimit:4;stroke-dasharray:none;stroke-opacity:1"
     id="path3340"
     cx="30"
     cy="30" />
  <path
     d="m 30,24 c -3.2,0 -6.3,0.5 -9.2,1.44 l 0,6.2 c 0,0.78 -0.46,1.48 -1.12,1.8 -1.96,0.98 -3.74,2.24 -5.32,3.7 C 14,37.5 13.5,37.7 12.96,37.7 12.4,37.7 11.9,37.48 11.54,37.12 L 6.58,32.16 C 6.22,31.82 6,31.32 6,30.76 6,30.2 6.22,29.7 6.58,29.34 12.68,23.56 20.92,20 30,20 c 9.08,0 17.32,3.56 23.42,9.34 0.36,0.36 0.58,0.86 0.58,1.42 0,0.56 -0.22,1.06 -0.58,1.42 l -4.96,4.96 c -0.36,0.36 -0.86,0.58 -1.42,0.58 -0.54,0 -1.04,-0.22 -1.4,-0.56 -1.58,-1.48 -3.38,-2.72 -5.34,-3.7 -0.66,-0.32 -1.12,-1 -1.12,-1.8 l 0,-6.2 C 36.3,24.5 33.2,24 30,24 Z"
     id="path6"
     style="fill:#c00000;fill-opacity:1" />
</svg>
