<?xml version="1.0" encoding="UTF-8" standalone="no"?>
<svg
   fill="#000000"
   height="36"
   viewBox="0 0 36 36"
   width="36"
   id="svg2"
   version="1.1">
  <defs
     id="defs10" />
  <path
     d="m 0,-12 36,0 0,36 -36,0 z"
     id="path4"
     style="fill:none" />
  <circle
     style="fill:#000000;fill-opacity:0.1254902;stroke:#00aa00;stroke-width:1.20243478;stroke-miterlimit:4;stroke-dasharray:none;stroke-opacity:1"
     id="path3338"
     cx="18"
     cy="18"
     r="16.398783" />
  <path
     d="M 12.62,16.789999 C 14.06,19.62 16.38,21.930001 19.210001,23.38 l 2.200001,-2.200001 c 0.27,-0.27 0.669997,-0.36 1.019998,-0.239998 C 23.550001,21.31 24.759998,21.51 26.000002,21.51 26.55,21.51 27,21.96 27,22.509998 l 0,3.490004 C 27,26.55 26.55,27 26.000002,27 16.609999,27 9,19.390001 9,10 9,9.45 9.45,9 9.9999998,9 L 13.5,9 c 0.549998,0 0.999998,0.45 0.999998,1 0,1.25 0.200001,2.45 0.570003,3.57 0.11,0.350001 0.02999,0.74 -0.25,1.019998 L 12.62,16.789999 Z"
     id="path6"
     style="fill:#00aa00" />
</svg>
