<svg
   xmlns="http://www.w3.org/2000/svg"
   version="1.1"
   id="svg2"
   width="36"
   viewBox="0 0 36 36"
   height="36"
   fill="#000000">
  <defs
     id="defs10" />
  <path
     id="path4"
     fill="none"
     d="M0 0h24v24H0z" />
  <circle
     style="fill:#c0c0c0;fill-opacity:0.75294119;stroke:#0000a0;stroke-width:2.37405396;stroke-miterlimit:4;stroke-dasharray:none;stroke-opacity:1"
     id="path4139"
     cx="18"
     cy="18"
     r="16.812973" />
  <path
     id="path5"
     d="M 27,10 9,10 c -1.1,0 -2,0.9 -2,2 l 0,12 c 0,1.1 0.9,2 2,2 l 5,0 0,2 8,0 0,-2 5,0 c 1.1,0 1.99,-0.9 1.99,-2 L 29,12 c 0,-1.1 -0.9,-2 -2,-2 z m 0,14 -18,0 0,-12 18,0 0,12 z" />
  <path
     style="fill:none;fill-rule:evenodd;stroke:#0000a0;stroke-width:2.4;stroke-linecap:butt;stroke-linejoin:miter;stroke-opacity:1;stroke-miterlimit:4;stroke-dasharray:none"
     d="M 5,6 30,31"
     id="path4141" />
</svg>
