<?xml version="1.0" encoding="UTF-8" standalone="no"?>
<svg
   version="1.1"
   id="Layer_1"
   x="0px"
   y="0px"
   viewBox="0 0 20 20"
   enable-background="new 0 0 20 20"
   xml:space="preserve"><defs
     id="defs13" /><g
     transform="matrix(1.4,0,0,1.4,-1.2,-1.2)"
     id="g3"><path
       style="fill:#c94f50"
       d="m 8,4.5 c 1.9,0 3.5,1.6 3.5,3.5 0,1.9 -1.6,3.5 -3.5,3.5 C 6.1,11.5 4.5,9.9 4.5,8 4.5,6.1 6.1,4.5 8,4.5 M 8,3 C 5.2,3 3,5.2 3,8 c 0,2.8 2.2,5 5,5 2.8,0 5,-2.2 5,-5 C 13,5.2 10.8,3 8,3 Z"
       id="path5" /></g><g
     transform="scale(1.25,1.25)"
     id="g7"><path
       style="fill:#c94f50"
       d="m 8,1.5 c 3.6,0 6.5,2.9 6.5,6.5 0,3.6 -2.9,6.5 -6.5,6.5 C 4.4,14.5 1.5,11.6 1.5,8 1.5,4.4 4.4,1.5 8,1.5 M 8,0 C 3.6,0 0,3.6 0,8 c 0,4.4 3.6,8 8,8 4.4,0 8,-3.6 8,-8 C 16,3.6 12.4,0 8,0 Z"
       id="path9" /></g></svg>