<?xml version="1.0" encoding="UTF-8" standalone="no"?>
<svg
   xml:space="preserve"
   enable-background="new 0 0 20 20"
   viewBox="0 0 20 20"
   y="0px"
   x="0px"
   id="Layer_1"
   version="1.1"><defs
     id="defs11" /><g
     transform="scale(1.25,1.25)"
     id="g5"><path
       style="fill:#c94f50"
       id="path7"
       d="m 8,1.5 c 3.6,0 6.5,2.9 6.5,6.5 0,3.6 -2.9,6.5 -6.5,6.5 C 4.4,14.5 1.5,11.6 1.5,8 1.5,4.4 4.4,1.5 8,1.5 M 8,0 C 3.6,0 0,3.6 0,8 c 0,4.4 3.6,8 8,8 4.4,0 8,-3.6 8,-8 C 16,3.6 12.4,0 8,0 Z" /></g><path
     style="fill:#c94f50"
     id="path3-0"
     d="m 16.997722,10.071127 c 0,-3.9591532 -3.039708,-7.0688486 -6.9988615,-7.0688486 C 6.0397069,3.0022784 3,6.0419852 3,10.001139 3,13.960294 6.0397069,17 9.9988605,17 13.958014,17 17.096701,13.931303 16.997722,10.071127 Z M 5.0996579,8.6013665 c 1.1720439,0 9.7984061,0 9.7984061,0 0,0.8291998 0,1.6653085 0,2.7995445 -1.298317,0 -8.1851712,0 -9.7984061,0 0,-0.749066 -4.9e-6,-1.6693055 0,-2.7995445 z" /></svg>