<?xml version="1.0" encoding="utf-8" standalone="no"?>
<svg
   xml:space="preserve"
   enable-background="new 0 0 20 20"
   viewBox="0 0 20 20"
   y="0px"
   x="0px"
   id="Layer_1"
   version="1.1"><defs
     id="defs7" /><path
     style="fill:#ffffff"
     id="path3"
     d="M 10,0 C 4.4,0 0,4.4 0,10 0,15.6 4.4,20 10,20 15.6,20 20,15.6 20,10 20,4.4 15.6,0 10,0 Z M 3,10 C 3,6.6 5.4,3.8 8.6,3.2 l 0,13.6 C 5.4,16.2 3,13.4 3,10 Z m 8.4,6.8 0,-13.6 c 3.2,0.6 5.6,3.4 5.6,6.8 0,3.4 -2.4,6.2 -5.6,6.8 z" /></svg>