<?xml version="1.0" encoding="UTF-8" standalone="no"?>
<svg
   xml:space="preserve"
   enable-background="new 0 0 16 16"
   viewBox="0 0 16 16"
   y="0px"
   x="0px"
   id="Layer_1"
   version="1.1"><defs
     id="defs13" /><g
     id="g3"><path
       id="path5"
       d="M8,4.5c1.9,0,3.5,1.6,3.5,3.5S9.9,11.5,8,11.5c-1.9,0-3.5-1.6-3.5-3.5S6.1,4.5,8,4.5 M8,3C5.2,3,3,5.2,3,8   s2.2,5,5,5c2.8,0,5-2.2,5-5S10.8,3,8,3z"
       fill="#C94F50" /></g><g
     id="g7"><path
       id="path9"
       d="M8,1.5c3.6,0,6.5,2.9,6.5,6.5s-2.9,6.5-6.5,6.5S1.5,11.6,1.5,8S4.4,1.5,8,1.5 M8,0C3.6,0,0,3.6,0,8   s3.6,8,8,8s8-3.6,8-8S12.4,0,8,0z"
       fill="#C94F50" /></g></svg>