<?xml version="1.0" encoding="utf-8" standalone="no"?>
<svg
   xml:space="preserve"
   enable-background="new 0 0 20 20"
   viewBox="0 0 20 20"
   y="0px"
   x="0px"
   id="Layer_1"
   version="1.1"><defs
     id="defs9" /><g
     id="g3"
     transform="matrix(1.4,0,0,1.4,3,3)"><path
       id="path5"
       d="M 5,1.5 C 6.9,1.5 8.5,3.1 8.5,5 8.5,6.9 6.9,8.5 5,8.5 3.1,8.5 1.5,6.9 1.5,5 1.5,3.1 3.1,1.5 5,1.5 M 5,0 C 2.2,0 0,2.2 0,5 0,7.8 2.2,10 5,10 7.8,10 10,7.8 10,5 10,2.2 7.8,0 5,0 Z"
       style="fill:#c94f50" /></g></svg>